<?xml version="1.0" encoding="UTF-8"?>
<svg version="1.1" viewBox="0 0 1600 1416" width="1280" height="1280" xmlns="http://www.w3.org/2000/svg">
<path transform="translate(245,171)" d="m0 0h88l577 1 2 1v60l-2 2h-425l-134 1-10 2-5 10v12l6 12 4 2 5 2 6 1 36 1 512 1 5 1 1 31v31l-1 73-1 310h-284l-108 1h-87l-140-1-2-1-2-115-2-16-13-2h-25v177h336l75-1h137l87 1 30 1 1 1v104l-1 1-9 1-41 1 2 33 5 49 15 90 6 43h122l26-1h13l7 3 9 9 11 9 6 5 6 8 5 12 1 6v29l-1 5h53l169 2 21 1 13 4 12 7 7 7 2 4v8l-7 9-9 6-11 3-17 1-67 1-105 1h-243l-47 1h-140l-66-2h-132l-56 1h-149l-147-1-14-2-11-6-9-9-2-4v-7l6-8 5-4 13-6 15-3 21-1h155l30 1 2-21 2-20 3-11 8-11 14-14 11-7 10-4h43l56 1 5-29 9-65 7-63 5-53 1-7h-270l-29-1-21-3-13-5-11-7-11-9-12-12-10-14-6-14-3-11-1-29v-527l3-15 8-17 8-11 6-7h2v-2l13-10 17-9 7-2zm436 632-5 2-4 5-1 3v14l3 3 12 2 13-1 5-3 3-4v-13l-4-5-9-3zm95 3-6 2-2 4v8l2 8 5 2h20l5-4 1-2v-9l-3-5-6-3zm-486 1-3 3v13l3 5 8 2h12l5-3 1-2v-9l-3-6-5-3zm82-1-11 1-5 4v14l3 5 7 2h11l5-2 4-6 1-12-5-5zm59 4-4 3v7l3 7 6 2h8l8-2 3-4v-9l-4-3-4-1zm184 69-2 2-4 24-10 81-11 89-2 21h73l4-1-1-4h-42l2-25 6-52 11-110v-13l-6-7-11-5z" fill="#040A1C"/>
<path transform="translate(249,235)" d="m0 0 92 2-5 11v12l6 12 4 2 5 2 6 1 36 1 512 1 5 1 1 31v31l-1 73-1 310h-284l-108 1h-87l-140-1-2-1-2-115-2-16-13-2h-24v-347l1-8z" fill="#465C6E"/>
<path transform="translate(1043,105)" d="m0 0h21l63 1h33l64-1h51l17 2 15 5 11 6 11 9 10 10 9 14 8 16 4 14 1 11v83l-1 669-2 12-9 20-8 14-9 11-10 9-13 8-12 5-10 3-7 1-243 1-14-2-17-6-11-7-13-11-9-10-8-13-8-17-2-8-3-58v-310l-1-248v-134l2-20 3-12 8-16 9-14 13-14 13-10 15-8 14-4zm5 76-8 3-7 6-6 9-1 3-1 39v27l1 9 3 1 19 1 234-1 6-1v-36l-1-36-2-9-6-9-6-3-5-1-45-1-130-1zm25 128-41 2-7 1v71l3 8 5 6 9 6 147-1 77-1 17-1 5-2v-49l-1-38-61-2zm86 172-11 4-11 8-6 8-4 9-1 4v8l4 11 6 8 8 8 7 5 9 3h12l11-4 10-7 7-7 6-11 1-4v-11l-4-10-9-10-7-6-11-5-3-1zm-98 17-8 2-6 4-6 7-1 3v9l4 9 8 7 6 2h10l9-4 5-5 2-4v-13l-5-10-6-5zm197 0-6 3-2 8v13l2 9 4 5 6 1 8-4 6-7 2-4v-10l-3-6-5-5-10-3zm-46 100-2 3-1 28-1 152-1 88-1 50v19l3 10 3 5 2 1h10l4-3 3-16 1-171v-98l-1-53-3-10-5-4-3-1zm-104 1-4 5-1 4 1 330 3 14 5 3h7l4-4 2-18v-62l-1-228-1-25-2-13-4-5zm163 1-6 5-3 9-1 227v98l4 11 4 3h8l6-4 2-9v-331l-3-7-2-2zm-108 1-6 3-1 11-1 209-1 115 3 9 5 6h9l4-2 2-8 1-11v-304l-2-24-4-4zm-112 4-6 5-5 10-2 7v7l6 27v9l-4 12-1 5v12l3 7 3 1h11l9-4 1-2v-18l-2-13-2-4 1-7 3-17v-16l-3-12-3-6-4-3zm-1 139-10 5-7 9v10l3 8 8 9 9 4 7-2 5-5 4-10 1-9-2-11-4-6-6-2zm-3 85-6 2v22l1 17v65l2 9 5 7 3 2h9l2-3v-69l2-15v-33l-3-3-5-1z" fill="#040A1C"/>
<path transform="translate(249,235)" d="m0 0 92 2-5 11v12l6 12 4 2 5 2 6 1 36 1v1l-104 1v146l-1 180-2 3-2-16-13-2h-24v-347l1-8z" fill="#FDFDFD"/>
<path transform="translate(1212,594)" d="m0 0 2 1v2h-2l-1 4-1 28-1 152-1 88-1 50v19l3 10 2 4 2 1h10l5-2 2-4 1-6 1-147 1-36 3 4 2 1 3-22 2-13 2-8 1-9 3-3h3l-1-5-1-3 2-4 2-7 2-4 2 1 1 255 2 5 7 6 4 3-6 2-6-3-2 1-2-1h-8v-3h-7l-5 3-12 3-8 3-13-1-7-1v2h-20l-4-4 3-3h2l-1-4 1-8v-322l-1-17 5-1 8 2h9l5-3 5-5z" fill="#03020C"/>
<path transform="translate(629,1244)" d="m0 0h136l42 1 72 1 82 2 36 2 38 4 12 3 2 4-9 4-23 5-27 3-35 2-30 1-82 1h-56l-159-1-45-1-89-4-17-1-5-2-3-3-1-6 3-3 8-2 36-3 54-4z" fill="#040B1D"/>
<path transform="translate(1056,216)" d="m0 0h46l59 1 89 1 12 1 1 2v33l-1 3-57-3h-98l-21 1h-28l-2-2-1-6v-30z" fill="#465C6E"/>
<path transform="translate(1153,610)" d="m0 0h2v342 4l-2 1h-7l-8 1h-17l-4-1v-2l4-2h3v-5h2l2-20 1-22 1-127 1-96 4 1 1 5 3-3-1 5-2 4 2 4-1 2h2l2-15 2 4v-6l-2 1v-24h1l1 10 1-16-1-2v-7l2-9 2-11 4-14z" fill="#03020C"/>
<path transform="translate(1057,337)" d="m0 0h123l50 1 25 1 5 1 1 4v28l-1 1h-202l-3-3 1-32z" fill="#495E70"/>
<path transform="translate(639,1248)" d="m0 0h213l16 1 4 2h8l10 1 11-1h34l33 2h4l7 1 5 2 1 3-4 5-10 4-12 4-39 1h-134l-68-1v-2h2v-2l-4-1-16-1-59-1-7-1v-3l5-2 16-2 12-1-1-1-13 1-6-1-8 1-8-2 1-4 4-1z" fill="#03020C"/>
<path transform="translate(1025,278)" d="m0 0h258l4 1 1 5-1 8 2 1-3 5 1 5 3 5-1 2h2v2l-8-2-24-2-135-2-10-2-12-2-13-1-7-1-25-2-16-4-9-3-6-7z" fill="#04030E"/>
<path transform="translate(1256,685)" d="m0 0 3 1 1 255 2 5 7 6 4 3-6 2-6-3-2 1-2-1h-8v-3h-7l-5 3h-5l2-4-1-156 1-36 3 4 2 1 3-22 2-13 2-8 1-9 3-3h3l-1-5-1-3 2-4 2-7z" fill="#03020C"/>
<path transform="translate(245,171)" d="m0 0h88l577 1 2 1v60l-2 2h-425l-134 1-8 1h-54l-40-1-1 8v248l-2 194-1 33-2 1v-87h2l-1-40-1-214v-114l2-28 3-5 2-1h195l463 1v-24l1-33-381 1h-37l-150-1h-97l-16 3-14 7-2-1 10-6 11-5z" fill="#4C6173"/>
<path transform="translate(244,873)" d="m0 0 297 1 20 1 1 1v11l-4 34v11l1 14h3l4-4 6-2 3-3 5 1 3 6 1 1v5h3l4 6 2 1 1-4h2l1-3 5 1 4-38 3-21 3-10 1 3-4 29-15 120h-1v-10l1-10-4 1-1 2-2-1-1 5-3-3-1-3-1 2h-4v2h-4l-4-6-5-2-2-5-1-4v-4l-7 2 2 4 2-3 1 5-3 5-4 18-4 13-4 21-3 15-3 10-2 1-2 6-2 1-21 1h-66l-16 1-7 1 4-3 8-3h43l56 1 5-29 9-65 7-63 5-53 1-7h-270l-29-1-17-2z" fill="#0B1329"/>
<path transform="translate(629,1244)" d="m0 0h136l42 1 72 1 82 2 36 2 38 4 12 3 2 4-9 4-23 5-27 3-35 2-30 1-82 1h-56l-159-1-45-1-89-4-17-1-5-2-3-3-1-6 3-3 6-1-3 2-3 3v3l15 4 8 1h9l1-1h10l4-1h13v3h-2v2h24l35 1 164 1h150l18-1 39-1 12-4 10-4 3-4-1-3-9-1h-3l-6-1-30-2h-39l-10 1-7-1h-7l-4-2-17-1-107-1h-114l-71 2h-18v-1l47-3z" fill="#050B1E"/>
<path transform="translate(193,201)" d="m0 0 1 2-6 16-3 9-2 16-1 26v23l-1 32-1 6v17l-1 5v66l1 42v16l1 9v78l1 28v32l-1 28-1 3-2 8v111l2 24 2 14v6l5 10-1 2-6-10-5-14-1-5-1-29v-527l3-15 8-17 8-11z" fill="#0B1229"/>
<path transform="translate(657,767)" d="m0 0h137l87 1 30 1 1 1v104l-3 1v-96l1-7h-501l-158-1-5-1v-2h336z" fill="#4B6072"/>
<path transform="translate(252,229)" d="m0 0h58l25 1 58 1v1h-143l-3 2-2 12-1 19v116l1 212v40h-2l1 86 1-33h1v82l-3-4-1-2-2-33-1-71v-45l1-14v-14l2-20v-147l-1-70-3-39v-24l1-38 1-7 3-7 4-3z" fill="#0B1229"/>
<path transform="translate(157,1225)" d="m0 0 10 1 116 1h111l77-1h144l72 1 22 1 6 2v1h-24l-32-1h-132l-56 1h-149l-147-1-14-2z" fill="#465C6E"/>
<path transform="translate(1358,185)" d="m0 0h1l2 7v83l-1 190h-3l-1-5-1-92-3-26-3 4h-2l-1-4-1-14 1-16 1-6 3-1 1 1 2-6 1-21 1-59 1-30z" fill="#060611"/>
<path transform="translate(955,174)" d="m0 0 2 1-2 15-1 727h-1l-1-21v-310l-1-248v-134l2-20z" fill="#98A4AE"/>
<path transform="translate(1122,612)" d="m0 0h1l2 10 2 5 1 5 1 22v250l-1 37-2 7h-2v5h-2l2-20v-62l-1-228z" fill="#465C6E"/>
<path transform="translate(1280,600)" d="m0 0 6 2 2 3 1 41v293l-2 9-3 1-1 3-6 1 5-4 2-9v-331l-3-7z" fill="#465C6E"/>
<path transform="translate(1109,307)" d="m0 0h46l103 1 25 1 5 1 1 19v72l-4 2-6 1-19 1-48 1h-166l-8-2 2-3 2 1 147-1 77-1 17-1 4-1v-87h-24l-37-1h-153l-41 2h-7l1-2 4-1 28-1z" fill="#485E70"/>
<path transform="translate(185,212)" d="m0 0 1 2-6 13-2 9-1 19v366l-1 114v43l1 25 3 11-1 3-4-11-1-5-1-29v-527l3-15 8-17z" fill="#576B7B"/>
<path transform="translate(1354,1223)" d="m0 0 3 1-8 3-5 1-17 1-67 1-105 1h-280l1-3 11-1h292l158-1 14-2z" fill="#465C6E"/>
<path transform="translate(1359,573)" d="m0 0h1v371l-2 12-4 9-1-3 2-6 1-13 1-44 1-4-1-2-1-13-1-36v-212l1-14 2-2z" fill="#121A31"/>
<path transform="translate(1206,630)" d="m0 0h1l1 10 1 1v140l-1 88-1 50v19l1 8h-3l-1-6-1-44v-119l1-123 1-22z" fill="#030818"/>
<path transform="translate(473,1255)" d="m0 0 4 1-5 2-1 5 15 4 8 1h9l1-1h10l4-1h13v3h-2v2h24l35 1 164 1h150l69-1h19v1l-35 2-30 1-82 1h-56l-159-1-45-1-89-4-17-1-5-2-3-3-1-6 3-3z" fill="#475D6F"/>
<path transform="translate(1103,601)" d="m0 0 2 3-1 4 1 337-1 2h-2l-2-7v-330l1-7z" fill="#465C6E"/>
<path transform="translate(629,1244)" d="m0 0h136l42 1 72 1 82 2 36 2 38 4 12 3 2 4-5 2v-5l-10-2-42-4-61-2-46-1h-45l-96-1h-114l-71 2h-18v-1l47-3z" fill="#485E70"/>
<path transform="translate(244,873)" d="m0 0 297 1 20 1 1 1v11l-6 54-4 38-4 31-3 24-2 10h-1l1-14 7-56 6-58 3-32 1-7h-270l-29-1-17-2z" fill="#4A6071"/>
<path transform="translate(163,1184)" d="m0 0h79v1l-9 1-7 2-27 2-10 3-6 4-5 6-7 6-6 3-8 2-1-3-7-2v-4h-2l-2-4v-5l5-6z" fill="#03030D"/>
<path transform="translate(633,884)" d="m0 0 6 2 4 5 2 6v13l-2 19-2 10-2 16-1 29-4 29-2 22-2 10-1 11-1 3h-2v7l-2 2-2-5 1-13 8-75 7-71v-13z" fill="#0B1229"/>
<path transform="translate(1261,607)" d="m0 0h2l1 3-1 4-1 227v98l2 8-4-2-1-4v-318l1-15z" fill="#516677"/>
<path transform="translate(603,176)" d="m0 0h211l-4 2-13 1-29 1h-17l-61 1h-73l-22-2 1-2z" fill="#03020C"/>
<path transform="translate(1040,1224)" d="m0 0 135 1h172v1l-10 1-183 1h-74l-193-1v-1z" fill="#0B1229"/>
<path transform="translate(1043,105)" d="m0 0h21l63 1h33l64-1h51l17 2 4 2h-250l-29 1 3-2 8-2z" fill="#495E70"/>
<path transform="translate(1223,599)" d="m0 0 5 1v2l3 1 2 6 1 30v158l-1 144-2 8-3 4-2-1 3-9 1-8 1-171v-98l-1-53-3-10z" fill="#465C6E"/>
<path transform="translate(1037,1091)" d="m0 0h13l7 3 2 3-5-1h-34l-49 1h-72l-10-2v-3h122z" fill="#465C6E"/>
<path transform="translate(1181,1178)" d="m0 0h56l79 1 21 1 13 4 2 2-11-2-98-1-55-2-7-1z" fill="#151F35"/>
<path transform="translate(199,1180)" d="m0 0h155l22 1 7 1v1l-216 1 4-2 7-1z" fill="#465C6E"/>
<path transform="translate(1069,1106)" d="m0 0 8 6 6 5 6 8 5 12 1 6v29l-1 5h53v1l-53 1-2-1-1-3v-33h-6l-3-2-1-5h-2l-2-7-3-3-3-9-2-4v-4z" fill="#0E162D"/>
<path transform="translate(1109,307)" d="m0 0h46l103 1 25 1 5 1 1 19v67h-1l-1-47v-38h-24l-37-1h-153l-41 2h-7l1-2 4-1 28-1z" fill="#85939F"/>
<path transform="translate(1014,1022)" d="m0 0h6l9 2 181 1 70 1v1l-243 1-14-2-9-3z" fill="#475C6E"/>
<path transform="translate(1063,831)" d="m0 0 3 1 1 3v81l-1 31-2 8-11-1v-1l8-1 1-2v-69l2-15v-33z" fill="#5C707F"/>
<path transform="translate(1175,603)" d="m0 0h2l1 3 1 13v322l-1 12-7 1 4-4 2-17v-304z" fill="#4C6273"/>
<path transform="translate(369,799)" d="m0 0 13 2 9 6 1 6-2 3h-2l-2-7-2-1v-2l-19-1-6 2-4 4-2 4v7l4 8 6 3 10 2-4 4-9-1-8-6-6-10 1-7 7-9 10-6z" fill="#03030E"/>
<path transform="translate(1204,814)" d="m0 0h1l2 22h1v33l-1 50v19l1 8h-3l-1-6z" fill="#465C6E"/>
<path transform="translate(636,924)" d="m0 0h1v21l-2 28-4 30-3 46-2 17-2 2-2-5 1-13 8-75z" fill="#4D6273"/>
<path transform="translate(1124,618)" d="m0 0 4 2 2 14v272l-1 22h-1v-274l-1-22-2-9z" fill="#091026"/>
<path transform="translate(538,1065)" d="m0 0h1v9l-4 19-3 3-21 1h-66l-16 1-7 1 4-3 8-3h43l56 1z" fill="#576B7B"/>
<path transform="translate(1067,178)" d="m0 0h37l58 2 14 1v1h-132l2-2 5-1z" fill="#465C6E"/>
<path transform="translate(1204,747)" d="m0 0 2 2 1 53 1 34-1 10h-1l-1-21-1 71h-1v-119z" fill="#0B1229"/>
<path transform="translate(1232,805)" d="m0 0h1v136l-2 8-3 4-2-1 3-9 1-8 1-129z" fill="#4A5F71"/>
<path transform="translate(1154,406)" d="m0 0h57l-2 5-17 1h-20l-17-1-3-3h2z" fill="#03030E"/>
<path transform="translate(1208,641)" d="m0 0h1v140h-1l-1-50-1-1v-61l1-27z" fill="#0D101C"/>
<path transform="translate(1342,984)" d="m0 0 2 1-6 9-9 10-10 8-14 8-18 6h-13l1-2 17-5 4-2 9-2 8-3 3-2h3v-2l5-5 3-5 4-4h2l2-4 3-5z" fill="#151F35"/>
<path transform="translate(473,1255)" d="m0 0 4 1-5 2-1 5 15 4 8 1h9l1-1h10l4-1h13v3h-2v2h24v1h-38l-38-2-5-2-3-3-1-6 3-3z" fill="#111930"/>
<path transform="translate(1246,1179)" d="m0 0h70l21 1 13 4 2 2-21-3-64-1-19-1z" fill="#485D6F"/>
<path transform="translate(413,1104)" d="m0 0 2 1-6 7-4 5-5 4-2 3h-2l-4 10-1 43-5 5-2-1 2-21 2-20 3-11 8-11z" fill="#232F43"/>
<path transform="translate(230,526)" d="m0 0 2 4 1 24 2 14-1 7v7l-2 5-3 1-2-6v-15l2-26v-11z" fill="#03020C"/>
<path transform="translate(176,735)" d="m0 0h1l1 19v20l2 24 2 14v6l5 10-1 2-6-10-4-17-1-25v-42z" fill="#0F172E"/>
<path transform="translate(245,632)" d="m0 0h1v54l-1 33-2 1v-87z" fill="#465C6E"/>
<path transform="translate(1283,192)" d="m0 0 3 1v2h2l2 9v73h-2l-2-72-2-9z" fill="#6E7F8D"/>
<path transform="translate(612,882)" d="m0 0 1 3-4 29-9 72-3 23h-1v-10l3-25 4-31 4-40 4-19z" fill="#5E7181"/>
<path transform="translate(1136,109)" d="m0 0h47l9 1v1l-14 2h-24l-22-1-10-1v-1z" fill="#03020D"/>
<path transform="translate(1024,312)" d="m0 0h1v69l-2-4-1-6-1-17v-14l1-17z" fill="#465C6E"/>
<path transform="translate(1058,493)" d="m0 0h11l4 1v2l5 2 4 5 4 8 5 5-2 7-1 4h-2l-1-9-3-6-2-7-8-6-7-2-8 1-5 2-3-1 5-4z" fill="#03030F"/>
<path transform="translate(860,877)" d="m0 0h1l2 33 5 49 3 18v6h-1l-7-40-3-31-1-28z" fill="#546979"/>
<path transform="translate(1359,896)" d="m0 0h1v48l-2 12-4 9-1-3 2-6 1-13 1-44z" fill="#1B253B"/>
<path transform="translate(1091,1131)" d="m0 0 2 3 2 9v29l-1 5h53v1l-53 1-2-1-1-3z" fill="#465C6E"/>
<path transform="translate(1162,179)" d="m0 0h21l53 1v1l18 1v1h-31l-47-1-14-1z" fill="#141E34"/>
<path transform="translate(1233,797)" d="m0 0h1l1 153-2 3-4-1 2-5 1-6z" fill="#0B1229"/>
<path transform="translate(1232,734)" d="m0 0h2v63l-1 8-2 1v-42z" fill="#70818F"/>
<path transform="translate(152,1222)" d="m0 0 12 2 107 2v1h-104l-12-2z" fill="#0B1229"/>
<path transform="translate(767,812)" d="m0 0h1l2 16 5 1h20l5-5 1-9 2 1v10l-7 6-7 2h-9l-8-2-5-4-2-5v-8h2z" fill="#6D7E8C"/>
<path transform="translate(1020,1095)" d="m0 0h34l2 2-7 1h-96v-1l18-1z" fill="#0B1229"/>
<path transform="translate(636,924)" d="m0 0h1v21l-2 28-4 30-2 1v-11z" fill="#465C6E"/>
<path transform="translate(1083,528)" d="m0 0 2 1-2 9-4 5-5 3-10 1-5-4-6-2 1-2 4 1h10l9-4 5-5z" fill="#151D33"/>
<path transform="translate(1015,1262)" d="m0 0 18 1 7 1-4 2-19 4-13 1 3-5h2v-2z" fill="#141E34"/>
<path transform="translate(365,804)" d="m0 0 16 1 3 1v2l-12-1-11 1-4 3v14l2 4 7 2h15l-2 2h-19l-5-4-3-7v-7l5-8 3-2z" fill="#758592"/>
<path transform="translate(1061,609)" d="m0 0 3 1 2 7 1 8v58h-2l-2-13-2-4 1-7 3-17v-16l-3-12z" fill="#566A7B"/>
<path transform="translate(1050,743)" d="m0 0h10l8 4 3 4 1 5v10l-2 10-6 12-5 2h-7l-4-1v-2l7 1 7-3 5-9 2-13-2-11-3-5-6-2-8-1z" fill="#445A6C"/>
<path transform="translate(425,811)" d="m0 0h3v9l2 6 6 2h8l8-1v2l-7 2h-8l-2-1-1 2-8-2-4-9-1-3 2-6z" fill="#151823"/>
<path transform="translate(1179,657)" d="m0 0 2 3 1 9v40h-3z" fill="#0B1229"/>
<path transform="translate(1105,1178)" d="m0 0h38l-1 2-14 3h-15l-6-2z" fill="#03020C"/>
<path transform="translate(1309,1014)" d="m0 0m-4 1h4v3l-12 5-10 3h-13l1-2 17-5 4-2z" fill="#141D33"/>
<path transform="translate(1339,1184)" d="m0 0 10 1 7 2 8 8-1 3-7-2-10-6-6-3z" fill="#060612"/>
<path transform="translate(1113,307)" d="m0 0m-4 0 4 2-40 1-41 2h-7l1-2 4-1 28-1z" fill="#465C6E"/>
<path transform="translate(473,1255)" d="m0 0 4 1-5 2-1 5 15 4 23 2v2h-15l-17-1-5-2-3-3-1-6 3-3z" fill="#4F6475"/>
<path transform="translate(296,803)" d="m0 0h11l11 4v2l3 1 1 2v10l-2 3h-3l-1-12-2-4-8-3-11-1z" fill="#03030E"/>
<path transform="translate(989,1007)" d="m0 0 5 2 6 4v2l10-1v2l4 1 15 6v1h-7l-2-1-12-2-13-8-6-5z" fill="#111930"/>
<path transform="translate(663,1092)" d="m0 0 3 1-1 4h-79v-1l15-1h62z" fill="#5F7281"/>
<path transform="translate(1223,599)" d="m0 0 5 1v2l3 1 2 6v30l-1 27h-1l-1-53-3-10z" fill="#8C9AA5"/>
<path transform="translate(1360,1191)" d="m0 0 4 2 6 7 1 2v8l-7 9-5 4h-2l1-5 4-6 2-1 2-4h2v-6l-7-8z" fill="#202C41"/>
<path transform="translate(562,876)" d="m0 0h1v46l-4 1-2 2 2-19z" fill="#0B1229"/>
<path transform="translate(1031,191)" d="m0 0 2 1-5 7-1 3-2 66h-1v-51l1-17 2-6z" fill="#70818E"/>
<path transform="translate(1045,825)" d="m0 0h11l8 3 4 3v3h-2l-1-2-8-2h-10l-9 2 1-4z" fill="#080A15"/>
<path transform="translate(633,884)" d="m0 0 4 2 5 6v14l-2 14-3 3v-10l1-9v-13z" fill="#475C6E"/>
<path transform="translate(1277,522)" d="m0 0 1 4-3 7-4 5v3l-8 1-5-3v-2l11-4 6-7z" fill="#0A1128"/>
<path transform="translate(866,1226)" d="m0 0h19l2 2-11 1-1 2h-32v-1l12-2 8 1z" fill="#0A1128"/>
<path transform="translate(707,816)" d="m0 0h2v7l-3 5-6 5-6 2h-10l-8-3-5-3 1-2 2 2 12 2 13-1 5-3 2-3z" fill="#738491"/>
<path transform="translate(547,1250)" d="m0 0h42l-1 2-11 1h-27l-4-2z" fill="#03020C"/>
<path transform="translate(1179,632)" d="m0 0h1l1 16 2 4v51h-1l-1-39-2-7z" fill="#040A1C"/>
<path transform="translate(1127,504)" d="m0 0h1l-1 10h-2l2 17-1-3-3-1-3-8 1-9 5-5z" fill="#070712"/>
<path transform="translate(1190,489)" d="m0 0 5 2 7 8v2l3 1 3 7 1 5v9l-4 11-3 4-2-1 5-9 1-4v-11l-4-10-9-10z" fill="#95A1AC"/>
<path transform="translate(897,1249)" d="m0 0h34l28 1v1l-58 1v-2z" fill="#080F24"/>
<path transform="translate(1023,109)" d="m0 0h23l9 1v1l-18 2h-12l-3-1z" fill="#030410"/>
<path transform="translate(560,875)" d="m0 0 2 1v11l-3 28h-2v-12z" fill="#465C6E"/>
<path transform="translate(1292,320)" d="m0 0 3 1v16l-5 5v-14l1-7z" fill="#03020C"/>
<path transform="translate(595,987)" d="m0 0h2v12l-2 9-3-1-1-11 2-7z" fill="#040A1C"/>
<path transform="translate(286,811)" d="m0 0h1l1 12 2 4 8 2h15l-1 2-3 1h-14l-6-3-4-5-1-8z" fill="#5F7281"/>
<path transform="translate(225,866)" d="m0 0 5 1 7 2 6 1 1-1h8v2l5-1 5 2v1h-22l-13-5z" fill="#1D273D"/>
<path transform="translate(413,1104)" d="m0 0 2 1-6 7-4 5-5 4-2 3h-2l-6 15-1-4 4-9 7-9z" fill="#1C283E"/>
<path transform="translate(1041,876)" d="m0 0h1v33l-3-3 1-12-2-5 1-10z" fill="#03020C"/>
<path transform="translate(1178,898)" d="m0 0h1v43l-1 12-7 1 4-4 2-17z" fill="#060C20"/>
<path transform="translate(258,175)" d="m0 0h35l-3 2-15 1h-13l-4-2z" fill="#03020C"/>
<path transform="translate(1081,506)" d="m0 0 4 2 1 3 5 5-2 7-1 4h-2l-1-9-3-6z" fill="#070813"/>
<path transform="translate(1038,616)" d="m0 0 3 1-2 10v7l2 11-2 5-2-3v-28z" fill="#586C7C"/>
<path transform="translate(992,123)" d="m0 0 2 1-14 14-5 6h-2l-1 4-4 5-2-1 8-11 12-13z" fill="#70818F"/>
<path transform="translate(709,1228)" d="m0 0h26l4 3h-24l-6-2z" fill="#0B1229"/>
<path transform="translate(777,802)" d="m0 0h7l9 2v2l2 2-19-1-3-1-1-2z" fill="#71747C"/>
<path transform="translate(1271,502)" d="m0 0h7l3 10v9l-3 1-2-13-3-4v-2z" fill="#19243A"/>
<path transform="translate(767,812)" d="m0 0h1l2 16 4 2 6 2v1h-6l-6-4-3-6v-8h2z" fill="#808F9B"/>
<path transform="translate(1037,679)" d="m0 0 2 1 1 7v16l-3-3-1-4v-16z" fill="#5C6F7F"/>
<path transform="translate(1261,607)" d="m0 0h2l1 3-1 4-1 34h-1l-1-25v-15z" fill="#9DA8B2"/>
<path transform="translate(1061,496)" d="m0 0 9 1 9 6 3 4-1 3-4-6-7-4-9-1-8 2-5 2v-2l9-4z" fill="#566A7B"/>
<path transform="translate(1039,832)" d="m0 0h2v17l-1 9-2-3v-21z" fill="#465C6E"/>
<path transform="translate(1066,687)" d="m0 0 2 1 1 3v10l-4 5-2 1h-7l3-2 5-2 1-2z" fill="#364457"/>
<path transform="translate(295,805)" d="m0 0h11l8 3 3 5v12h-1l-2-12-3-4-3-1-17-1z" fill="#506576"/>
<path transform="translate(1283,192)" d="m0 0 3 1 2 7v41h-1l-1-36-2-9z" fill="#FDFDFD"/>
<path transform="translate(471,1258)" d="m0 0 4 2 1 4 10 1 10 2 7 1v1h-9l-11-2-12-3-1-4z" fill="#0B1229"/>
<path transform="translate(1257,495)" d="m0 0h7l5 4 2 1-1 2-10-3-7 2-2 2 1-5h2v-2z" fill="#1B263B"/>
<path transform="translate(1030,309)" d="m0 0h26v1l-5 1-26 1 1-2z" fill="#5F7281"/>
<path transform="translate(515,1251)" d="m0 0h8l-4 2-3 1h-29v-1z" fill="#5C707F"/>
<path transform="translate(1083,528)" d="m0 0 2 1-2 6-9 6-6 2h-7v-2l10-2 9-5z" fill="#596D7D"/>
<path transform="translate(612,882)" d="m0 0 1 3-4 26-2 2v-10l4-19z" fill="#4F6475"/>
<path transform="translate(1e3 115)" d="m0 0h8l-2 1v2h-3v4l-3 2h-5l2-4z" fill="#060712"/>
<path transform="translate(1021,1253)" d="m0 0 14 1 12 3 2 4-5 2v-5l-10-2-13-1z" fill="#506475"/>
<path transform="translate(1039,405)" d="m0 0 19 1-2 2-14 2-3-3z" fill="#03030E"/>
<path transform="translate(671,827)" d="m0 0 7 3 15 1h6l-2 2-14 1-10-3z" fill="#EAECEE"/>
<path transform="translate(1267,599)" d="m0 0h12v1l-10 2-4 5-2 2v-2l-3 1 2-5z" fill="#293547"/>
<path transform="translate(1260,344)" d="m0 0h1v28l-3 1z" fill="#FDFDFD"/>
<path transform="translate(1061,609)" d="m0 0 3 1 2 7 1 8v17h-1l-1-16-3-12z" fill="#5C707F"/>
<path transform="translate(384,808)" d="m0 0 3 1 2 9-2 9-3 4-3-1 4-6 1-12z" fill="#7C8B98"/>
<path transform="translate(1133,542)" d="m0 0 9 6 5 2 3 3h-5l-10-5-2-3z" fill="#292D37"/>
<path transform="translate(365,804)" d="m0 0 16 1 3 1v2l-12-1h-11l4-1z" fill="#ABB5BD"/>
<path transform="translate(1277,522)" d="m0 0 1 4-4 6-7 5-9 1 12-6 6-8z" fill="#465C6E"/>
<path transform="translate(1233,936)" d="m0 0h1l1 14-2 3-4-1 2-5z" fill="#050B1F"/>
<path transform="translate(1040,849)" d="m0 0 2 4v12h-3l-1-2v-8h1z" fill="#151F35"/>
<path transform="translate(1024,384)" d="m0 0 4 5 3 4-1 2-6-2-1-1v-7z" fill="#191E2B"/>
<path transform="translate(999,118)" d="m0 0 2 1-19 19-2-1 18-18z" fill="#121B2F"/>
<path transform="translate(1064,782)" d="m0 0h1v5l-6 3h-7l-4-1v-2l7 1 7-3z" fill="#9AA6B0"/>
<path transform="translate(686,1252)" d="m0 0h6l2 3-1 1h-11v-2z" fill="#040A1C"/>
<path transform="translate(1036,779)" d="m0 0h2l5 6 3 2-1 2-6-2-3-4z" fill="#060713"/>
<path transform="translate(1027,190)" d="m0 0 3 1-1 3h-2l-1 6-2 2-1-1v-6z" fill="#050511"/>
<path transform="translate(853,1228)" d="m0 0 9 1 1 2h-20v-1z" fill="#0B1229"/>
<path transform="translate(1177,933)" d="m0 0h1v20l-7 1 4-4z" fill="#596D7D"/>
<path transform="translate(1106,949)" d="m0 0 3 4 3 1-1 3h-5l-3-2 2-5z" fill="#101421"/>
<path transform="translate(801,815)" d="m0 0 2 1v10l-5 5-2-1 4-6z" fill="#929FA9"/>
<path transform="translate(1037,636)" d="m0 0h2l2 9-2 5-2-3z" fill="#465C6E"/>
<path transform="translate(1038,1257)" d="m0 0 6 1v5l-5 1z" fill="#060816"/>
<path transform="translate(450,827)" d="m0 0h2v2l-7 2h-8l-3-1v-2h10z" fill="#607382"/>
<path transform="translate(206,188)" d="m0 0h2l-2 4-6 5-4 3-2-1 4-4h2v-2z" fill="#515E6D"/>
<path transform="translate(977,138)" d="m0 0h2l-2 4-4 2-1 4-4 5-2-1 8-11z" fill="#96A3AD"/>
<path transform="translate(558,899)" d="m0 0 2 4-1 12h-2v-12z" fill="#344659"/>
<path transform="translate(1319,1008)" d="m0 0 3 2-11 7h-2l1-3 6-4h3z" fill="#243246"/>
<path transform="translate(989,1007)" d="m0 0 5 2 6 4v2h2l-1 2-11-8z" fill="#1E2A40"/>
<path transform="translate(622,1063)" d="m0 0 2 4 2-1-1 6-2 1-2-1z" fill="#151E34"/>
<path transform="translate(861,897)" d="m0 0h1l1 17h-2l-1-2v-8z" fill="#8B99A4"/>
<path transform="translate(1090,1168)" d="m0 0h1l1 10h5l-1 3-5-1-1-2z" fill="#0B1229"/>
<path transform="translate(857,887)" d="m0 0h2v17h-1l-2-12z" fill="#03020C"/>
<path transform="translate(312,808)" d="m0 0 4 2 1 3v12h-1l-2-12z" fill="#758593"/>
<path transform="translate(1199,539)" d="m0 0v3l-9 9-4-1 8-6z" fill="#8B97A2"/>
<path transform="translate(471,1258)" d="m0 0 4 2 2 4-3 1-4-2z" fill="#0A1128"/>
<path transform="translate(152,1222)" d="m0 0 12 2 3 2h-7l-7-2z" fill="#141D33"/>
<path transform="translate(679,834)" d="m0 0 11 1-3 3-6-1z" fill="#03030E"/>
<path transform="translate(1250,501)" d="m0 0 1 2-2 8-1 8h-1l-1-10z" fill="#0B1229"/>
</svg>
